<svg xmlns="http://www.w3.org/2000/svg" width="1040" height="720" viewBox="0 0 1040 720" role="img" aria-labelledby="title desc"><title id="title">Conventional 5.1 speaker roles</title><desc id="desc">Schematic top view with channel positions around a listener. LFE is a signal label rather than a subwoofer placement instruction.</desc><rect width="100%" height="100%" fill="#fff"/><g font-family="Segoe UI,Arial,sans-serif" font-size="21" fill="#263238"><text x="520" y="42" font-size="28" fill="#263238" text-anchor="middle">Conventional 5.1 channel roles</text><rect x="345" y="70" width="350" height="12" rx="6" fill="#dce4e8"/><text x="520" y="96" font-size="19" fill="#546e7a" text-anchor="middle">Screen / front</text><line x1="520" y1="355" x2="411" y2="166.20646197499235" stroke="#d9e5ed" stroke-width="3" stroke-dasharray="6 6"/><line x1="520" y1="355" x2="520" y2="137" stroke="#d9e5ed" stroke-width="3" stroke-dasharray="6 6"/><line x1="520" y1="355" x2="629" y2="166.20646197499235" stroke="#d9e5ed" stroke-width="3" stroke-dasharray="6 6"/><line x1="520" y1="355" x2="315.14700866867196" y2="429.5603912449958" stroke="#d9e5ed" stroke-width="3" stroke-dasharray="6 6"/><line x1="520" y1="355" x2="724.852991331328" y2="429.5603912449958" stroke="#d9e5ed" stroke-width="3" stroke-dasharray="6 6"/><circle cx="520" cy="355" r="28" fill="#e8f3e6" stroke="#31852b" stroke-width="3"/><path d="M 498 339 Q 520 317 542 339" fill="none" stroke="#31852b" stroke-width="3"/><text x="520" y="420" font-size="21" fill="#263238" text-anchor="middle">Listener</text><rect x="380" y="130.20646197499235" width="62" height="72" rx="9" fill="#eaf3f9" stroke="#3779b5" stroke-width="2.5"/><circle cx="411" cy="155.20646197499235" r="9" fill="#3779b5"/><circle cx="411" cy="182.20646197499235" r="15" fill="#3779b5"/><text x="411" y="228.20646197499235" font-size="20" fill="#263238" text-anchor="middle">Front left</text><rect x="489" y="101" width="62" height="72" rx="9" fill="#eaf3f9" stroke="#3779b5" stroke-width="2.5"/><circle cx="520" cy="126" r="9" fill="#3779b5"/><circle cx="520" cy="153" r="15" fill="#3779b5"/><text x="520" y="199" font-size="20" fill="#263238" text-anchor="middle">Center</text><rect x="598" y="130.20646197499235" width="62" height="72" rx="9" fill="#eaf3f9" stroke="#3779b5" stroke-width="2.5"/><circle cx="629" cy="155.20646197499235" r="9" fill="#3779b5"/><circle cx="629" cy="182.20646197499235" r="15" fill="#3779b5"/><text x="629" y="228.20646197499235" font-size="20" fill="#263238" text-anchor="middle">Front right</text><rect x="284.14700866867196" y="393.5603912449958" width="62" height="72" rx="9" fill="#eaf3f9" stroke="#3779b5" stroke-width="2.5"/><circle cx="315.14700866867196" cy="418.5603912449958" r="9" fill="#3779b5"/><circle cx="315.14700866867196" cy="445.5603912449958" r="15" fill="#3779b5"/><text x="315.14700866867196" y="491.5603912449958" font-size="20" fill="#263238" text-anchor="middle">Left surround</text><rect x="693.852991331328" y="393.5603912449958" width="62" height="72" rx="9" fill="#eaf3f9" stroke="#3779b5" stroke-width="2.5"/><circle cx="724.852991331328" cy="418.5603912449958" r="9" fill="#3779b5"/><circle cx="724.852991331328" cy="445.5603912449958" r="15" fill="#3779b5"/><text x="724.852991331328" y="491.5603912449958" font-size="20" fill="#263238" text-anchor="middle">Right surround</text><rect x="250" y="646" width="540" height="50" rx="12" fill="#fff4e7" stroke="#c27421" stroke-width="2"/><text x="520" y="678" font-size="20" fill="#915419" text-anchor="middle">LFE: separate signal; subwoofer position varies</text></g></svg>