<svg xmlns="http://www.w3.org/2000/svg" viewBox="0 0 900 436" width="900" height="436" role="img" aria-labelledby="title desc"><title id="title">Telecine cadence and mixed field pairs</title><desc id="desc">Film pictures A, B, C, D map to fields A A B B B C C D D D. Alternating top and bottom fields are paired as AA, BB, BC, CD, DD.</desc><defs><marker id="arrow" viewBox="0 0 10 10" refX="8" refY="5" markerWidth="6" markerHeight="6" orient="auto-start-reverse"><path d="M 0 0 L 10 5 L 0 10 z" fill="#526879"/></marker></defs><rect width="900" height="436" rx="12" fill="#f7fafc"/><g font-family="Segoe UI, Arial, sans-serif" fill="#17354a"><text x="32" y="35" font-size="24" text-anchor="start" fill="#17354a">One phase of 3:2 pulldown</text><text x="28" y="102" font-size="19" text-anchor="start" fill="#17354a">Film pictures</text><text x="28" y="207" font-size="19" text-anchor="start" fill="#17354a">Fields</text><text x="28" y="322" font-size="19" text-anchor="start" fill="#17354a">Stored pairs</text><rect x="188" y="70" width="146" height="52" rx="6" fill="#dcf1e2" stroke="#8da6b6" stroke-width="2"/><text x="261" y="104" font-size="25" text-anchor="middle" fill="#17354a">A</text><rect x="342" y="70" width="146" height="52" rx="6" fill="#dbeefa" stroke="#8da6b6" stroke-width="2"/><text x="415" y="104" font-size="25" text-anchor="middle" fill="#17354a">B</text><rect x="496" y="70" width="146" height="52" rx="6" fill="#fae7cb" stroke="#8da6b6" stroke-width="2"/><text x="569" y="104" font-size="25" text-anchor="middle" fill="#17354a">C</text><rect x="650" y="70" width="146" height="52" rx="6" fill="#e5e0f8" stroke="#8da6b6" stroke-width="2"/><text x="723" y="104" font-size="25" text-anchor="middle" fill="#17354a">D</text><rect x="188" y="175" width="53" height="52" rx="6" fill="#dcf1e2" stroke="#8da6b6" stroke-width="2"/><text x="214.5" y="210" font-size="24" text-anchor="middle" fill="#17354a">A</text><text x="214.5" y="252" font-size="14" text-anchor="middle" fill="#17354a">Top</text><rect x="249" y="175" width="53" height="52" rx="6" fill="#dcf1e2" stroke="#8da6b6" stroke-width="2"/><text x="275.5" y="210" font-size="24" text-anchor="middle" fill="#17354a">A</text><text x="275.5" y="252" font-size="14" text-anchor="middle" fill="#17354a">Bottom</text><rect x="310" y="175" width="53" height="52" rx="6" fill="#dbeefa" stroke="#8da6b6" stroke-width="2"/><text x="336.5" y="210" font-size="24" text-anchor="middle" fill="#17354a">B</text><text x="336.5" y="252" font-size="14" text-anchor="middle" fill="#17354a">Top</text><rect x="371" y="175" width="53" height="52" rx="6" fill="#dbeefa" stroke="#8da6b6" stroke-width="2"/><text x="397.5" y="210" font-size="24" text-anchor="middle" fill="#17354a">B</text><text x="397.5" y="252" font-size="14" text-anchor="middle" fill="#17354a">Bottom</text><rect x="432" y="175" width="53" height="52" rx="6" fill="#dbeefa" stroke="#8da6b6" stroke-width="2"/><text x="458.5" y="210" font-size="24" text-anchor="middle" fill="#17354a">B</text><text x="458.5" y="252" font-size="14" text-anchor="middle" fill="#17354a">Top</text><rect x="493" y="175" width="53" height="52" rx="6" fill="#fae7cb" stroke="#8da6b6" stroke-width="2"/><text x="519.5" y="210" font-size="24" text-anchor="middle" fill="#17354a">C</text><text x="519.5" y="252" font-size="14" text-anchor="middle" fill="#17354a">Bottom</text><rect x="554" y="175" width="53" height="52" rx="6" fill="#fae7cb" stroke="#8da6b6" stroke-width="2"/><text x="580.5" y="210" font-size="24" text-anchor="middle" fill="#17354a">C</text><text x="580.5" y="252" font-size="14" text-anchor="middle" fill="#17354a">Top</text><rect x="615" y="175" width="53" height="52" rx="6" fill="#e5e0f8" stroke="#8da6b6" stroke-width="2"/><text x="641.5" y="210" font-size="24" text-anchor="middle" fill="#17354a">D</text><text x="641.5" y="252" font-size="14" text-anchor="middle" fill="#17354a">Bottom</text><rect x="676" y="175" width="53" height="52" rx="6" fill="#e5e0f8" stroke="#8da6b6" stroke-width="2"/><text x="702.5" y="210" font-size="24" text-anchor="middle" fill="#17354a">D</text><text x="702.5" y="252" font-size="14" text-anchor="middle" fill="#17354a">Top</text><rect x="737" y="175" width="53" height="52" rx="6" fill="#e5e0f8" stroke="#8da6b6" stroke-width="2"/><text x="763.5" y="210" font-size="24" text-anchor="middle" fill="#17354a">D</text><text x="763.5" y="252" font-size="14" text-anchor="middle" fill="#17354a">Bottom</text><rect x="184" y="286" width="114" height="53" rx="6" fill="#edf5f0" stroke="#8da6b6" stroke-width="2"/><text x="241" y="321" font-size="23" text-anchor="middle" fill="#17354a">AA</text><rect x="306" y="286" width="114" height="53" rx="6" fill="#edf5f0" stroke="#8da6b6" stroke-width="2"/><text x="363" y="321" font-size="23" text-anchor="middle" fill="#17354a">BB</text><rect x="428" y="286" width="114" height="53" rx="6" fill="#fff0df" stroke="#d27130" stroke-width="2"/><text x="485" y="321" font-size="23" text-anchor="middle" fill="#17354a">BC</text><text x="485" y="366" font-size="15" text-anchor="middle" fill="#9b5429">Mixed times</text><rect x="550" y="286" width="114" height="53" rx="6" fill="#fff0df" stroke="#d27130" stroke-width="2"/><text x="607" y="321" font-size="23" text-anchor="middle" fill="#17354a">CD</text><text x="607" y="366" font-size="15" text-anchor="middle" fill="#9b5429">Mixed times</text><rect x="672" y="286" width="114" height="53" rx="6" fill="#edf5f0" stroke="#8da6b6" stroke-width="2"/><text x="729" y="321" font-size="23" text-anchor="middle" fill="#17354a">DD</text><text x="487" y="409" font-size="19" text-anchor="middle" fill="#17354a">4 source pictures → 10 field intervals → 5 stored field pairs</text></g></svg>
